<?xml version="1.0" standalone="no"?><!DOCTYPE svg PUBLIC "-//W3C//DTD SVG 1.1//EN" "http://www.w3.org/Graphics/SVG/1.1/DTD/svg11.dtd"><svg class="icon" width="200px" height="200.00px" viewBox="0 0 1024 1024" version="1.1" xmlns="http://www.w3.org/2000/svg"><path d="M491.2 756.8c6.4 6.4 14.4 9.6 22.4 9.6 8 0 16-3.2 22.4-9.6L846.4 448c12.8-12.8 12.8-32 0-44.8s-32-12.8-44.8 0L545.6 656V96c0-17.6-14.4-32-32-32s-32 14.4-32 32v560L222.4 396.8c-12.8-12.8-32-12.8-44.8 0s-12.8 32 0 44.8l313.6 315.2z" fill="#4A4A4A" /><path d="M921.6 702.4c-17.6 0-32 14.4-32 32v132.8c0 17.6-14.4 32-32 32H166.4c-17.6 0-32-14.4-32-32v-132.8c0-17.6-14.4-32-32-32s-32 14.4-32 32v132.8c0 52.8 43.2 96 96 96h691.2c52.8 0 96-43.2 96-96v-132.8c0-17.6-14.4-32-32-32z" fill="#4A4A4A" /></svg>