<svg xmlns="http://www.w3.org/2000/svg" viewBox="0 0 422.75 125">
  <defs><style>.cls-1{fill:#ffd100;}</style></defs>
  <title>LOGO (2)</title>
  <g id="图层_2" data-name="图层 2">
    <g id="图层_1-2" data-name="图层 1">
      <g id="LOGO">
        <path d="M69.75,85Q64.66,81.92,42.4,80v1.17q19.14,5.48,25.39,10.94,3.52,3.12,4.69-.39C73,89.08,72.09,86.86,69.75,85Z"/>
        <path d="M97.87,49.49v-23l4.3-3.9L94,15.9l-3.52,4.68H29.9l-7.42-3.9q.18,16.88-.07,37.56s-.57,34.7-1.08,48.42a18.42,18.42,0,0,0,6.6-2.33V97.61l0-.17.05.1H92v5a16.9,16.9,0,0,0,6.64-2.74c-.26-5.2-.47-17-.47-17Q98,70.35,97.87,49.49ZM92,96H28l0-71.06a2,2,0,0,1,2-2l22.26,0Q46.3,38.16,33,53.79l.78.39a83.41,83.41,0,0,0,15.62-16,45.47,45.47,0,0,0,7.43,13.28Q48.66,60.82,30.29,71l.78.78A91.72,91.72,0,0,0,60.37,55q10.55,9.76,20.31,13.28s5.18-3.73,9-5.08l.39-.39A73.5,73.5,0,0,1,63.5,52.22C66.88,49.1,80.66,38.29,82.07,37c-1.17-1.72-4.29-3.94-7.64-7-.26,0-.64,1-2.9,4.29H52.17c.52-1,6-7.64,6-7.64l-4.86-3.68H92ZM50.61,36.6H70.14A82.4,82.4,0,0,1,60,49.1Q56.07,46,50.61,36.6Z"/>
        <path d="M68.85,76A4.21,4.21,0,0,0,67,71.6q-3.36-2.07-18.1-3.36V69q12.66,3.63,16.81,7.24C67.3,77.63,68.34,77.55,68.85,76Z"/>
        <path d="M169.36,35q3.12-5.09-2.74-11.33A111.31,111.31,0,0,0,153,15.11l-.39.79q7.81,8.19,9.76,14.06Q165,40.11,169.36,35Z"/>
        <path d="M135,34.65q6.24-4.3,1.56-10.16A78.58,78.58,0,0,0,129.12,19a39.53,39.53,0,0,1-5.47-3.52l-.39.79a30.38,30.38,0,0,1,8.21,15.62C132,34.78,133.16,35.69,135,34.65Z"/>
        <path d="M151,76.83l-1.18-1.17q-7,6.25-13.28,11.72-2.34,2-3.12,2.73V55.26l4.07-3.7-8.2-6.65L126,49.49H112.32l2.74,3.24,4.69-.9h7.81l-.39,41.41-2.74,3.12,5.86,5.08q2.36-3.51,10.94-12.89Q147.47,81.14,151,76.83Z"/>
        <path d="M204.9,79.57h-1.56c-.26,1.56-.52,3.65-.78,6.25q-1.17,8.59-2.34,10.54c-.79.52-3.91.79-9.38.79-4.43,0-7-.4-7.81-1.18q-.79,0-.39-6.64V67.07h6.25v4.1a17,17,0,0,0,6.64-2.74c0-.4,0-1.32,0-1.36l-.38-21.66,4.2-3.81L191.14,35l-3.51,4.77h-9.29c6.25-9.37,17-19.31,17-19.31l-9.77-5.47c-3.9,10.42-6.42,18-9.54,24.78H160l-7.42-3.9q0,12.7-.32,31.79L152,72.68a13,13,0,0,0,2.47-.58l.52-.16.32-.13.28-.12a25.88,25.88,0,0,0,2.78-1.35v-.5l0,0V67.07h4.69c0,11.72-1.19,16.46-4.25,22.39-3.39,4.94-8.2,8.63-20.44,13.06l.39,1.17c24.74-3.9,30.31-13.19,30.55-36.62h7.42V81.91q-.39,16.8,1.17,18.36,2.34,2.73,15.23,2.73h1.57q12.88,0,15.23-6.64A62.92,62.92,0,0,1,204.9,79.57ZM158.42,64.72V44.07a2,2,0,0,1,2-2h28.47V64.72Z"/>
        <path d="M253,74.49l-15.63,6.64V58.47h14.07v-.39l-6.64-7-4.3,5.08h-3.13V30h15.24l.39-.39-7.42-7-4.3,5.07H215.06l1.56,3.13,3.91-.78h10.54V56.13H217l2,3.12,3.9-.78h8.2V84.25q-9,3.52-15.62,5.47l-1.56.78a25.19,25.19,0,0,0,4.68,6.65c.26,0,21.88-13.29,35.16-21.1Z"/>
        <path d="M303.22,94.41l-4.69,5.47H280.29V83.47h23.83l.39-.39-8.59-7.42L292,81.13H280.29V65.5H294v5.08a17.16,17.16,0,0,0,6.64-2.73c-.27-5.21-.39-10.94-.39-17.19V29.78l4.09-3.73-8.2-6.64-3.25,4.34-.07,0H263.11l-7.43-4.3q0,30.47-.78,51.17a18.19,18.19,0,0,0,6.64-2.34V65.5H274V81.13H252.17l2.34,3.12,4.69-.78H274V99.88H241.11l1.95,3.12,4.69-.78h64.06l.39-.78ZM280.29,26.05H294V43.24H280.29Zm0,19.53H294V63.16H280.29ZM274,63.16h-12.5V45.58H274Zm0-19.92h-12.5V28.05a2,2,0,0,1,2-2H274Z"/>
        <polygon points="398.67 89.73 393.99 95.59 392.86 95.59 392.79 95.58 379.49 95.58 379.45 95.58 363.11 95.58 363.11 31.13 399.82 31.13 399.82 30.35 391.62 22.93 386.93 28.79 320.92 28.79 324.04 32.69 329.51 31.13 356.46 31.13 356.46 95.58 313.44 95.58 316.56 99.49 322.03 97.92 369.96 97.92 370.16 97.93 406.88 97.93 406.88 97.15 398.67 89.73"/>
        <rect class="cls-1" width="32" height="8"/>
        <rect class="cls-1" x="-12" y="12" width="32" height="8" transform="translate(-12 20) rotate(-90)"/>
        <rect class="cls-1" y="117" width="32" height="8"/>
        <rect class="cls-1" x="-12" y="105" width="32" height="8" transform="translate(113 105) rotate(90)"/>
        <rect class="cls-1" x="390.75" width="32" height="8" transform="translate(813.5 8) rotate(-180)"/>
        <rect class="cls-1" x="402.75" y="12" width="32" height="8" transform="translate(402.75 434.75) rotate(-90)"/>
        <rect class="cls-1" x="390.75" y="117" width="32" height="8" transform="translate(813.5 242) rotate(-180)"/>
        <rect class="cls-1" x="402.75" y="105" width="32" height="8" transform="translate(527.75 -309.75) rotate(90)"/>
      </g></g></g>
</svg>
